# xmcd
#
# Track frame offsets:
#	150
#	16877
#	33625
#	49972
#	68712
#	85157
#	101687
#	121807
#	138582
#	151817
#	168257
#	185082
#	201872
#	222945
#	240322
#
# Disc length: 3396 seconds
#
# Revision: 0
# Processed by: cddbd v1.5.2PL0 Copyright (c) Steve Scherf et al.
# Submitted via: audiograbber 1.83.01
#
DISCID=cb0d420f
DTITLE=Top Hits Neil Diamond - Panoramas Top Hits Monthly Platinum Vol 37 Neil 
DTITLE=Diamond
DYEAR=1900
DGENRE=Karaoke
TTITLE0=And The Grass Won't Pay No Mind
TTITLE1=Brother Love's Traveling Salvation Show
TTITLE2=Cracklin' Rose
TTITLE3=Headed For The Future
TTITLE4=Hello Again
TTITLE5=I Am... I Said
TTITLE6=I Haven't Played This Song In Years
TTITLE7=I'm Alive
TTITLE8=Leave A Little Room For God
TTITLE9=Love On The Rocks
TTITLE10=Play Me
TTITLE11=Shilo
TTITLE12=Soolaimon
TTITLE13=Sweet Caroline
TTITLE14=You Don't Bring Me Flowers
EXTD=
EXTT0=
EXTT1=
EXTT2=
EXTT3=
EXTT4=
EXTT5=
EXTT6=
EXTT7=
EXTT8=
EXTT9=
EXTT10=
EXTT11=
EXTT12=
EXTT13=
EXTT14=
PLAYORDER=
